<svg id="Ebene_1" data-name="Ebene 1" xmlns="http://www.w3.org/2000/svg" viewBox="0 0 507.62812 160.06314">
  <defs>
    <style>
      .cls-1 {
        font-size: 100px;
        fill: #f6c800;
        font-family: Coolvetica;
      }

      .cls-2 {
        fill: #603814;
      }

      .cls-3, .cls-4 {
        fill: #ffed00;
      }

      .cls-4, .cls-5, .cls-6 {
        stroke: #1d1d1b;
        stroke-miterlimit: 10;
      }

      .cls-5, .cls-6 {
        fill: none;
      }

      .cls-5 {
        stroke-width: 18px;
      }

      .cls-7 {
        fill: #f9b03d;
      }

      .cls-8 {
        fill: #412413;
      }

      .cls-9 {
        fill: #603914;
      }

      .cls-10 {
        fill: #f7c802;
      }

      .cls-11 {
        fill: #f9edbd;
      }
    </style>
  </defs>
  <title>CoolveticaRegular</title>
  <text class="cls-1" transform="translate(156.43681 122.44124)">bee<tspan class="cls-2" x="151.49707" y="0">diary</tspan></text>
  <path class="cls-3" d="M369.58466,227.10034" transform="translate(-28.5545 -49.80186)"/>
  <path class="cls-4" d="M155.78543,475.01868" transform="translate(-28.5545 -49.80186)"/>
  <path class="cls-5" d="M179.44638,519.85" transform="translate(-28.5545 -49.80186)"/>
  <path class="cls-6" d="M222.40969,490.5851" transform="translate(-28.5545 -49.80186)"/>
  <path class="cls-6" d="M217.42844,489.96244" transform="translate(-28.5545 -49.80186)"/>
  <path class="cls-6" d="M127.14323,496.189" transform="translate(-28.5545 -49.80186)"/>
  <g>
    <path class="cls-7" d="M84.337,96.57082c4.6874,10.63172,5.56855,18.54362,2.41706,21.71443s-11.0686,2.338-21.72876-2.28437c-9.17736-3.97986-19.294-10.44222-24.597-15.71288-9.79542-9.73575-11.47274-23.98311-3.73985-31.76339s21.99036-6.19017,31.78577,3.54558C73.77716,77.34086,80.30108,87.418,84.337,96.57082Z" transform="translate(-28.5545 -49.80186)"/>
    <path class="cls-8" d="M87.35161,95.24119c3.77758,8.571,7.147,19.92648,1.73962,25.367S72.308,122.74874,63.71407,119.0236C54.04949,114.833,43.75623,108.24171,38.1053,102.6252,27.02183,91.60924,25.33811,75.27,34.35121,66.20164S59.71369,58.717,70.79716,69.733C76.44809,75.34949,83.102,85.60241,87.35161,95.24119ZM86.754,118.28524c3.1515-3.17081,2.27034-11.0827-2.41706-21.71443-4.03588-9.15285-10.5598-19.23-15.86277-24.50063-9.79542-9.73575-24.05286-11.32589-31.78577-3.54558S30.63286,90.55225,40.42827,100.288c5.303,5.27066,15.41962,11.733,24.597,15.71288C75.68543,120.62323,83.60255,121.456,86.754,118.28524Z" transform="translate(-28.5545 -49.80186)"/>
    <path class="cls-7" d="M166.89671,169.89318c9.7929,9.73325,11.47,23.98058,3.73708,31.76089s-21.9901,6.19016-31.783-3.54308c-5.30564-5.27332-11.827-15.34762-15.86539-24.503-4.68739-10.63172-5.56868-18.54374-2.41721-21.71453s11.06875-2.33788,21.72892,2.28447C151.477,158.16031,161.59107,164.61986,166.89671,169.89318Z" transform="translate(-28.5545 -49.80186)"/>
    <path class="cls-8" d="M169.21968,167.556c11.08093,11.01343,12.76442,27.35273,3.75132,36.42107s-25.36224,7.48459-36.44318-3.52885c-5.65357-5.61914-12.30761-15.87193-16.5572-25.51073-3.77771-8.57114-7.14705-19.92645-1.73964-25.367s16.78312-2.14068,25.37718,1.58459C153.27272,155.3457,163.56611,161.93684,169.21968,167.556Zm1.41411,34.09809c7.73291-7.7803,6.05582-22.02764-3.73708-31.76089-5.30564-5.27332-15.41973-11.73287-24.59961-15.71528-10.66016-4.62235-18.57742-5.45528-21.72892-2.28447S118.298,162.97624,122.9854,173.608c4.0384,9.1554,10.55975,19.2297,15.86539,24.503C148.64369,207.84423,162.90091,209.43435,170.63379,201.65407Z" transform="translate(-28.5545 -49.80186)"/>
    <polygon class="cls-8" points="55.01 127.271 24.407 135.571 32.52 104.918 55.01 127.271"/>
    <path class="cls-9" d="M55.07862,120.36776l61.67643,61.30074a49.7378,49.7378,0,0,1-12.949,2.10039L53.05736,133.32935A49.72377,49.72377,0,0,1,55.07862,120.36776Z" transform="translate(-28.5545 -49.80186)"/>
    <path class="cls-9" d="M137.40845,169.24538a49.59388,49.59388,0,0,1-4.32757,3.87069L63.531,103.98981a49.594,49.594,0,0,1,3.84431-4.351,50.13379,50.13379,0,0,1,4.42553-3.94874l69.52939,69.10587A50.16521,50.16521,0,0,1,137.40845,169.24538Z" transform="translate(-28.5545 -49.80186)"/>
    <path class="cls-10" d="M53.17813,138.0954l45.86122,45.58187A49.28413,49.28413,0,0,1,53.17813,138.0954Z" transform="translate(-28.5545 -49.80186)"/>
    <path class="cls-10" d="M61.56368,106.68053l68.8387,68.41938a49.13694,49.13694,0,0,1-10.174,5.3747l-63.9771-63.58739A49.12724,49.12724,0,0,1,61.56368,106.68053Z" transform="translate(-28.5545 -49.80186)"/>
    <path class="cls-10" d="M143.28951,162.09727L74.48733,93.71419A49.37031,49.37031,0,0,1,143.28951,162.09727Z" transform="translate(-28.5545 -49.80186)"/>
    <path class="cls-8" d="M139.518,97.08833a52.6655,52.6655,0,1,1-74.47991.22751A52.72695,52.72695,0,0,1,139.518,97.08833Zm-6.43711,76.02774a49.59388,49.59388,0,0,0,4.32757-3.87069,50.16521,50.16521,0,0,0,3.92176-4.44944L71.80082,95.69007a50.13379,50.13379,0,0,0-4.42553,3.94874,49.594,49.594,0,0,0-3.84431,4.351Zm-2.67851,1.98383-68.8387-68.41938a49.12724,49.12724,0,0,0-5.31244,10.20668l63.9771,63.58739A49.13694,49.13694,0,0,0,130.40238,175.0999Zm-55.915-81.38572,68.80218,68.38309A49.37031,49.37031,0,0,0,74.48733,93.71419Zm42.26772,87.95431L55.07862,120.36776a49.72377,49.72377,0,0,0-2.02126,12.96159L103.806,183.76888A49.7378,49.7378,0,0,0,116.75505,181.66849Zm-17.7157,2.00877L53.17813,138.0954A49.28413,49.28413,0,0,0,99.03935,183.67727Z" transform="translate(-28.5545 -49.80186)"/>
    <circle class="cls-8" cx="132.67998" cy="126.44537" r="10.62931" transform="translate(-79.08949 81.61178) rotate(-45.17504)"/>
    <ellipse class="cls-11" cx="127.11778" cy="125.91955" rx="4.0748" ry="2.80263" transform="matrix(0.18978, -0.98183, 0.98183, 0.18978, -49.19269, 177.02774)"/>
    <ellipse class="cls-7" cx="134.16355" cy="120.272" rx="1.8213" ry="2.64797" transform="translate(-37.93557 179.37447) rotate(-79.06173)"/>
    <circle class="cls-8" cx="110.3466" cy="104.24804" r="10.62931" transform="translate(-69.93534 59.22206) rotate(-45.17504)"/>
    <ellipse class="cls-11" cx="104.78454" cy="103.72235" rx="4.0749" ry="2.80263" transform="translate(-45.49365 137.11585) rotate(-79.05984)"/>
    <ellipse class="cls-7" cx="111.83021" cy="98.07469" rx="1.82125" ry="2.64797" transform="translate(-34.24084 139.45672) rotate(-79.05938)"/>
    <rect class="cls-8" x="111.0867" y="72.77586" width="31.85417" height="3.29526" transform="translate(-43.8641 62.24355) rotate(-45.17504)"/>
    <rect class="cls-8" x="146.4045" y="107.87852" width="31.85417" height="3.29526" transform="translate(-58.3404 97.65046) rotate(-45.17504)"/>
    <circle class="cls-7" cx="142.96734" cy="58.34622" r="5.25414" transform="translate(-27.75388 68.81513) rotate(-45.17504)"/>
    <circle class="cls-7" cx="178.28511" cy="93.44885" r="5.25414" transform="translate(-42.23016 104.222) rotate(-45.17504)"/>
    <path class="cls-8" d="M184.312,87.38514a8.5494,8.5494,0,1,1-12.09075.03681A8.56137,8.56137,0,0,1,184.312,87.38514Zm-2.3004,9.76752a5.25414,5.25414,0,1,0-7.43032.02283A5.26112,5.26112,0,0,0,182.01162,97.15266Z" transform="translate(-28.5545 -49.80186)"/>
    <path class="cls-8" d="M148.99422,52.28247a8.5494,8.5494,0,1,1-12.09062.03694A8.56149,8.56149,0,0,1,148.99422,52.28247ZM146.69382,62.05a5.25405,5.25405,0,1,0-7.43032.02283A5.26124,5.26124,0,0,0,146.69382,62.05Z" transform="translate(-28.5545 -49.80186)"/>
  </g>
</svg>
